<svg width="90" height="100" viewBox="0 0 90 100" fill="none" xmlns="http://www.w3.org/2000/svg">
<path d="M44.9326 0.129395C20.3283 0.129395 0.378448 20.0793 0.378448 44.6836C0.378448 59.7022 7.81856 72.9906 19.2037 81.0709V44.6836C19.2037 30.4955 30.7445 18.9546 44.9326 18.9546C59.1208 18.9546 70.6616 30.4955 70.6616 44.6836C70.6616 58.8717 59.1208 70.4126 44.9326 70.4126C40.1225 70.4126 35.6238 69.0975 31.7827 66.7963L31.8 87.2826H31.8173V100H31.9211C32.6651 96.7298 37.8213 89.2378 44.9326 89.2378C69.5369 89.2378 89.4868 69.2879 89.4868 44.6836C89.4868 20.0793 69.5369 0.129395 44.9326 0.129395Z" fill="white"/>
</svg>
